<svg xmlns="http://www.w3.org/2000/svg" viewBox="0 0 100 100">
  <defs>
    <radialGradient id="bg" cx="50%" cy="50%" r="60%">
      <stop offset="0%"   stop-color="#0d0d22"/>
      <stop offset="100%" stop-color="#05050f"/>
    </radialGradient>
    <linearGradient id="violet" x1="50%" y1="0%" x2="50%" y2="100%">
      <stop offset="0%"   stop-color="#a78bfa"/>
      <stop offset="100%" stop-color="#6d28d9"/>
    </linearGradient>
    <linearGradient id="cyan" x1="50%" y1="100%" x2="50%" y2="0%">
      <stop offset="0%"   stop-color="#67e8f9"/>
      <stop offset="100%" stop-color="#0891b2"/>
    </linearGradient>
    <radialGradient id="hex-fill" cx="50%" cy="50%" r="50%">
      <stop offset="0%"   stop-color="#c4b5fd" stop-opacity="0.5"/>
      <stop offset="100%" stop-color="#06b6d4" stop-opacity="0.15"/>
    </radialGradient>
    <filter id="glow-violet" x="-80%" y="-80%" width="260%" height="260%">
      <feGaussianBlur in="SourceGraphic" stdDeviation="3.5" result="b"/>
      <feColorMatrix in="b" type="matrix" values="0.6 0 1 0 0  0 0 0.4 0 0  0 0 1 0 0  0 0 0 1 0" result="colored"/>
      <feMerge><feMergeNode in="colored"/><feMergeNode in="colored"/><feMergeNode in="SourceGraphic"/></feMerge>
    </filter>
    <filter id="glow-cyan" x="-80%" y="-80%" width="260%" height="260%">
      <feGaussianBlur in="SourceGraphic" stdDeviation="3.5" result="b"/>
      <feColorMatrix in="b" type="matrix" values="0 0 0.4 0 0  0 0.8 1 0 0  0 0.9 1 0 0  0 0 0 1 0" result="colored"/>
      <feMerge><feMergeNode in="colored"/><feMergeNode in="colored"/><feMergeNode in="SourceGraphic"/></feMerge>
    </filter>
    <filter id="bloom" x="-100%" y="-100%" width="300%" height="300%">
      <feGaussianBlur in="SourceGraphic" stdDeviation="9" result="b"/>
      <feMerge><feMergeNode in="b"/><feMergeNode in="b"/></feMerge>
    </filter>
    <clipPath id="sq">
      <rect x="0" y="0" width="100" height="100" rx="24" ry="24"/>
    </clipPath>
  </defs>

  <rect x="0" y="0" width="100" height="100" rx="24" ry="24" fill="url(#bg)"/>

  <g filter="url(#bloom)" clip-path="url(#sq)" opacity="0.6">
    <polygon points="50,16 80.5,67 19.5,67" fill="#7c3aed" opacity="0.5"/>
    <polygon points="50,84 19.5,33 80.5,33" fill="#06b6d4" opacity="0.5"/>
  </g>

  <polygon points="50,16 80.5,67 19.5,67" fill="none" stroke="#8b5cf6" stroke-width="1.8" stroke-linejoin="round" filter="url(#glow-violet)" opacity="0.5"/>
  <polygon points="50,16 80.5,67 19.5,67" fill="none" stroke="url(#violet)" stroke-width="1.6" stroke-linejoin="round" opacity="0.95"/>

  <polygon points="50,84 19.5,33 80.5,33" fill="none" stroke="#22d3ee" stroke-width="1.8" stroke-linejoin="round" filter="url(#glow-cyan)" opacity="0.5"/>
  <polygon points="50,84 19.5,33 80.5,33" fill="none" stroke="url(#cyan)" stroke-width="1.6" stroke-linejoin="round" opacity="0.95"/>

  <polygon points="50,33 65.5,42 65.5,58 50,67 34.5,58 34.5,42" fill="url(#hex-fill)" opacity="1"/>
  <polygon points="50,33 65.5,42 65.5,58 50,67 34.5,58 34.5,42" fill="none" stroke="#c4b5fd" stroke-width="0.5" opacity="0.4"/>

  <circle cx="50"   cy="16" r="2.2" fill="#a78bfa" filter="url(#glow-violet)"/>
  <circle cx="50"   cy="84" r="2.2" fill="#67e8f9" filter="url(#glow-cyan)"/>
  <circle cx="80.5" cy="33" r="2.2" fill="#67e8f9" filter="url(#glow-cyan)"/>
  <circle cx="80.5" cy="67" r="2.2" fill="#a78bfa" filter="url(#glow-violet)"/>
  <circle cx="19.5" cy="33" r="2.2" fill="#67e8f9" filter="url(#glow-cyan)"/>
  <circle cx="19.5" cy="67" r="2.2" fill="#a78bfa" filter="url(#glow-violet)"/>

  <circle cx="50" cy="50" r="2.5" fill="white" opacity="0.7" filter="url(#bloom)"/>
  <circle cx="50" cy="50" r="1.2" fill="white" opacity="0.95"/>
</svg>
